<?xml version="1.0" encoding="windows-1252"?>
<!-- Generator: Adobe Illustrator 18.0.0, SVG Export Plug-In . SVG Version: 6.00 Build 0)  -->
<!DOCTYPE svg PUBLIC "-//W3C//DTD SVG 1.1//EN" "http://www.w3.org/Graphics/SVG/1.1/DTD/svg11.dtd">
<svg version="1.1" id="Layer_1" xmlns="http://www.w3.org/2000/svg" xmlns:xlink="http://www.w3.org/1999/xlink" x="0px" y="0px" viewBox="0 0 256 256" style="enable-background:new 0 0 256 256;" xml:space="preserve">
<g>
	<g>
		<g>
			<path style="fill:#FCCD32;" d="M128.449,249.612c-66.718,0-120.997-54.278-120.997-120.996S61.731,7.619,128.449,7.619     c66.717,0,120.996,54.279,120.996,120.997C249.444,195.334,195.166,249.612,128.449,249.612z"/>
		</g>
		<g>
			<path style="fill:#272361;" d="M128.449,249.612c-66.718,0-120.997-54.278-120.997-120.996S61.731,7.619,128.449,7.619     c66.717,0,120.996,54.279,120.996,120.997C249.444,195.334,195.166,249.612,128.449,249.612z M128.449,13.471     c-63.491,0-115.144,51.654-115.144,115.145S64.959,243.76,128.449,243.76s115.143-51.653,115.143-115.144     C243.592,65.125,191.939,13.471,128.449,13.471z"/>
		</g>
		<g>
			<path style="fill:#E6E6E5;" d="M31.507,17.584c-0.187-0.007-0.373-0.018-0.56-0.024c1.548,51.462,43.131,93.044,94.594,94.593     c-0.08-2.653-0.272-5.279-0.561-7.875C76.426,102.539,36.794,65.167,31.507,17.584z"/>
			<path style="fill:#FFFFFF;" d="M124.98,104.278c-5.289-47.583-44.921-84.955-93.473-86.694     C36.794,65.167,76.426,102.539,124.98,104.278z"/>
			<path style="fill:#272361;" d="M27.975,11.663c-0.776,0-1.52,0.308-2.069,0.857c-0.549,0.549-0.857,1.293-0.857,2.069     c0,57.049,46.413,103.461,103.462,103.461c0.776,0,1.521-0.308,2.069-0.857c0.549-0.549,0.857-1.293,0.857-2.069     C131.436,58.075,85.022,11.663,27.975,11.663z M30.946,17.56c51.461,1.548,93.044,43.13,94.594,94.593     C74.077,110.604,32.495,69.022,30.946,17.56z"/>
		</g>
		<g>
			<path style="fill:#E6E6E5;" d="M132.276,104.236c-0.401,2.591-0.665,5.226-0.776,7.899c36.743-1.529,66.353-31.141,67.882-67.883     c-0.259,0.011-0.517,0.028-0.776,0.041C193.54,77.045,165.992,102.464,132.276,104.236z"/>
			<path style="fill:#FFFFFF;" d="M198.606,44.293c-33.716,1.772-61.264,27.19-66.33,59.943     C165.992,102.464,193.54,77.045,198.606,44.293z"/>
			<path style="fill:#272361;" d="M202.37,38.336c-42.339,0-76.785,34.446-76.785,76.787c0,0.776,0.308,1.52,0.857,2.069     c0.549,0.548,1.293,0.857,2.069,0.857c42.34-0.001,76.785-34.447,76.785-76.787C205.297,39.647,203.987,38.336,202.37,38.336z      M131.5,112.135c1.529-36.744,31.139-66.355,67.882-67.883C197.853,80.994,168.243,110.605,131.5,112.135z"/>
		</g>
		<g>
			<path style="fill:#272361;" d="M128.511,192.774c-1.616,0-2.926-1.31-2.926-2.926v-74.724c0-1.617,1.31-2.926,2.926-2.926     c1.616,0,2.926,1.31,2.926,2.926v74.724C131.438,191.464,130.128,192.774,128.511,192.774z"/>
		</g>
		<g>
			<path style="fill:#272361;" d="M77.851,204.566c-25.947,0-51.233-12.592-52.296-13.128c-1.443-0.727-2.023-2.486-1.296-3.929     c0.727-1.443,2.486-2.024,3.929-1.298c0.249,0.125,25.137,12.503,49.663,12.503c12.124,0,32.072-5.769,51.365-11.349     c20.798-6.015,42.304-12.235,56.731-12.235c28.06,0,44.967,10.783,45.673,11.242c1.355,0.881,1.739,2.694,0.858,4.049     c-0.881,1.354-2.693,1.738-4.048,0.858c-0.155-0.1-16.265-10.296-42.483-10.296c-13.598,0-34.699,6.103-55.105,12.005     C110.252,198.942,90.804,204.566,77.851,204.566z"/>
		</g>
		<path style="fill:#E6E6E5;" d="M128.532,231.883c-30.605,0-58.45-12.011-79.093-31.556c-5.665-1.568-10.677-3.338-14.623-4.886    c20.903,29.231,55.122,48.319,93.717,48.319c40.993,0,77.045-21.536,97.452-53.885c-1.49-0.763-3.625-1.766-6.342-2.823    C198.566,214.301,165.567,231.883,128.532,231.883z"/>
		<path style="fill:#FFFFFF;" d="M219.642,187.052c-7.307-2.841-18.853-6.07-33.612-6.07c-13.598,0-34.699,6.103-55.105,12.005    c-20.59,5.955-40.038,11.579-52.991,11.579c-10.056,0-20.01-1.892-28.496-4.239c20.644,19.545,48.489,31.556,79.093,31.556    C165.567,231.883,198.566,214.301,219.642,187.052z"/>
	</g>
</g>
</svg>