<?xml version="1.0" encoding="windows-1252"?>
<!-- Generator: Adobe Illustrator 18.0.0, SVG Export Plug-In . SVG Version: 6.00 Build 0)  -->
<!DOCTYPE svg PUBLIC "-//W3C//DTD SVG 1.1//EN" "http://www.w3.org/Graphics/SVG/1.1/DTD/svg11.dtd">
<svg version="1.1" id="Layer_1" xmlns="http://www.w3.org/2000/svg" xmlns:xlink="http://www.w3.org/1999/xlink" x="0px" y="0px" viewBox="0 0 256 256" style="enable-background:new 0 0 256 256;" xml:space="preserve">
<g>
	<g>
		<g>
			<path style="fill:#FCCD32;" d="M128.317,247.835c-47.096,0-85.411-38.315-85.411-85.41s38.315-85.41,85.411-85.41     c47.095,0,85.41,38.315,85.41,85.41C213.726,209.521,175.412,247.835,128.317,247.835z"/>
		</g>
		<g>
			<path style="fill:#272361;" d="M128.317,247.835c-47.096,0-85.411-38.315-85.411-85.41s38.315-85.41,85.411-85.41     c47.095,0,85.41,38.315,85.41,85.41C213.726,209.521,175.412,247.835,128.317,247.835z M128.317,81.147     c-44.818,0-81.28,36.462-81.28,81.279s36.462,81.279,81.28,81.279c44.817,0,81.278-36.461,81.278-81.279     S173.134,81.147,128.317,81.147z"/>
		</g>
		<g>
			<rect x="109.995" y="215.248" style="fill:#E6E6E5;" width="36.644" height="4.863"/>
			<rect x="109.995" y="220.112" style="fill:#FFFFFF;" width="36.644" height="4.863"/>
			<path style="fill:#272361;" d="M148.705,211.117h-40.776c-1.141,0-2.066,0.925-2.066,2.065v13.858     c0,1.141,0.925,2.065,2.066,2.065h40.776c1.141,0,2.066-0.925,2.066-2.065v-13.858     C150.77,212.042,149.845,211.117,148.705,211.117z M146.639,224.975h-36.644v-9.727h36.644V224.975z"/>
		</g>
		<g>
			<rect x="109.995" y="229.106" style="fill:#E6E6E5;" width="36.644" height="7.299"/>
			<path style="fill:#FFFFFF;" d="M109.995,241.61c3.158,0.679,10.644,2.095,18.181,2.095c7.861,0,15.325-1.411,18.463-2.091v-5.209     h-36.644C109.995,236.405,109.995,241.61,109.995,241.61z"/>
			<path style="fill:#272361;" d="M148.705,224.975h-40.776c-1.141,0-2.066,0.925-2.066,2.066v16.217     c0,0.947,0.644,1.772,1.562,2.003c0.418,0.105,10.357,2.575,20.75,2.575c10.815,0,20.627-2.471,21.04-2.576     c0.915-0.233,1.555-1.057,1.555-2.002v-16.217C150.77,225.9,149.845,224.975,148.705,224.975z M146.639,241.614     c-3.139,0.679-10.602,2.091-18.463,2.091c-7.537,0-15.022-1.415-18.181-2.095v-12.503h36.644V241.614z"/>
		</g>
		<g>
			<path style="fill:#E6E6E5;" d="M104.144,126.033c11.046-5.697,22.86-5.861,24.172-5.861c1.311,0,13.127,0.164,24.173,5.861     c11.545,5.953,17.958,15.65,19.113,28.858c0.126-1.514,0.193-3.08,0.193-4.702c0-15.509-6.495-26.722-19.306-33.328     c-11.046-5.696-22.862-5.861-24.173-5.861c-1.311,0-13.126,0.165-24.172,5.861c-12.81,6.606-19.305,17.819-19.305,33.328     c0,1.622,0.067,3.188,0.193,4.702C86.187,141.683,92.6,131.986,104.144,126.033z"/>
			<path style="fill:#FFFFFF;" d="M109.913,211.117h36.808c0.684-8.594,5.543-15.553,10.667-22.888     c6.123-8.767,12.988-18.596,14.214-33.339c-1.155-13.208-7.569-22.905-19.113-28.858c-11.046-5.697-22.862-5.861-24.173-5.861     c-1.311,0-13.126,0.164-24.172,5.861c-11.544,5.953-17.957,15.65-19.112,28.858c1.226,14.743,8.09,24.572,14.214,33.339     C104.369,195.565,109.229,202.523,109.913,211.117z"/>
			<path style="fill:#272361;" d="M154.382,113.188c-11.912-6.143-24.653-6.321-26.067-6.321s-14.153,0.177-26.065,6.321     c-14.093,7.268-21.542,20.063-21.542,37c0,18.716,8.049,30.239,15.151,40.407c5.368,7.686,10.005,14.323,10.005,22.587     c0,1.141,0.925,2.066,2.066,2.066h40.776c1.141,0,2.066-0.925,2.066-2.066c0-8.264,4.636-14.902,10.005-22.587     c7.101-10.168,15.151-21.691,15.151-40.407C175.926,133.25,168.476,120.456,154.382,113.188z M84.839,150.188     c0-15.509,6.495-26.722,19.305-33.328c11.046-5.696,22.86-5.861,24.172-5.861c1.311,0,13.127,0.165,24.173,5.861     c12.811,6.606,19.306,17.819,19.306,33.328c0,17.416-7.654,28.373-14.406,38.041c-5.124,7.335-9.984,14.294-10.667,22.888     h-36.808c-0.683-8.594-5.544-15.553-10.667-22.888C92.493,178.562,84.839,167.604,84.839,150.188z"/>
		</g>
		<g>
			<g>
				<path style="fill:#272361;" d="M128.317,89.975c-1.141,0-2.066-0.925-2.066-2.065V30.878c0-1.141,0.925-2.065,2.066-2.065      c1.141,0,2.066,0.925,2.066,2.065V87.91C130.383,89.05,129.458,89.975,128.317,89.975z"/>
			</g>
			<g>
				<path style="fill:#272361;" d="M252.565,157.192h-57.032c-1.14,0-2.065-0.925-2.065-2.065c0-1.141,0.925-2.066,2.065-2.066      h57.032c1.141,0,2.066,0.925,2.066,2.066C254.631,156.267,253.706,157.192,252.565,157.192z"/>
			</g>
			<g>
				<path style="fill:#272361;" d="M61.1,157.192H4.067c-1.141,0-2.066-0.925-2.066-2.065c0-1.141,0.925-2.066,2.066-2.066H61.1      c1.141,0,2.066,0.925,2.066,2.066C63.165,156.267,62.24,157.192,61.1,157.192z"/>
			</g>
			<g>
				<path style="fill:#272361;" d="M175.847,109.663c-0.529,0-1.057-0.201-1.461-0.605c-0.806-0.807-0.806-2.115,0-2.921      l40.328-40.327c0.807-0.806,2.115-0.807,2.921,0c0.807,0.807,0.807,2.115,0,2.921l-40.328,40.327      C176.904,109.461,176.375,109.663,175.847,109.663z"/>
			</g>
			<g>
				<path style="fill:#272361;" d="M80.786,109.662c-0.529,0-1.057-0.201-1.461-0.605L38.996,68.73      c-0.807-0.807-0.807-2.115,0-2.921s2.115-0.807,2.921,0l40.329,40.328c0.807,0.807,0.807,2.115,0,2.922      C81.843,109.461,81.314,109.662,80.786,109.662z"/>
			</g>
		</g>
	</g>
</g>
</svg>