<?xml version="1.0" encoding="UTF-8"?>
<!DOCTYPE svg PUBLIC "-//W3C//DTD SVG 1.1//EN" "http://www.w3.org/Graphics/SVG/1.1/DTD/svg11.dtd">
<!-- Creator: CorelDRAW -->
<svg xmlns="http://www.w3.org/2000/svg" xml:space="preserve" width="586px" height="137px" version="1.1" style="shape-rendering:geometricPrecision; text-rendering:geometricPrecision; image-rendering:optimizeQuality; fill-rule:evenodd; clip-rule:evenodd"
viewBox="0 0 639.25 149.56"
 xmlns:xlink="http://www.w3.org/1999/xlink"
 xmlns:xodm="http://www.corel.com/coreldraw/odm/2003">
 <defs>
  <style type="text/css">
   <![CDATA[
    .fil5 {fill:#373535}
    .fil0 {fill:#EE3566}
    .fil2 {fill:#D62F56}
    .fil4 {fill:#AA2C49}
    .fil1 {fill:#7D273A}
    .fil3 {fill:#43232F}
    .fil6 {fill:#373535;fill-rule:nonzero}
    .fil7 {fill:#EE3566;fill-rule:nonzero}
   ]]>
  </style>
 </defs>
 <g id="Layer_x0020_1">
  <metadata id="CorelCorpID_0Corel-Layer"/>
  <polygon class="fil0" points="157.57,41.39 186.95,16.02 213.65,36.05 208.31,52.08 193.62,52.08 205.64,66.77 200.3,82.79 "/>
  <polygon class="fil1" points="162.91,0 114.84,36.05 118.85,74.78 172.26,106.83 189.38,72.21 157.57,41.39 186.95,16.02 "/>
  <polygon class="fil2" points="80.12,57.42 114.84,36.05 118.85,74.78 163.5,101.57 162.91,149.56 "/>
  <polygon class="fil3" points="201.64,145.55 178.13,94.96 172.26,106.83 163.5,101.57 163.39,110.28 "/>
  <polygon class="fil0" points="22.7,46.74 114.84,36.05 80.12,57.42 "/>
  <polygon class="fil2" points="2.67,144.22 22.7,46.74 80.12,57.42 "/>
  <polygon class="fil4" points="80.12,57.42 126.36,108.88 46.46,95.14 "/>
  <polygon class="fil3" points="80.12,140.21 71.36,99.42 46.46,95.14 39.54,102.9 "/>
  <polygon class="fil4" points="0,21.36 22.7,46.74 19.74,61.12 "/>
  <polygon class="fil3" points="30.71,13.35 0,21.36 7.99,30.3 "/>
  <polygon class="fil1" points="73.19,25.06 30.71,13.35 19.36,21.82 "/>
  <polygon class="fil5" points="80.54,8.37 87.22,12.38 73.19,25.06 "/>
  <g id="_105553455845248">
   <path class="fil6" d="M255.55 98.37l0 -74.01 17.09 0 0 59 35.86 0 0 15.01 -52.95 0zm59.93 0l0 -54.72 16.68 0 0 54.72 -16.68 0zm0 -60.98l0 -15.12 16.68 0 0 15.12 -16.68 0zm80.79 60.98l-16.68 0 0 -30.75c0,-3.61 -0.67,-6.24 -2.03,-7.87 -1.35,-1.63 -3.14,-2.45 -5.37,-2.45 -1.18,0 -2.38,0.24 -3.59,0.73 -1.22,0.49 -2.37,1.16 -3.44,2.03 -1.08,0.87 -2.07,1.9 -2.97,3.08 -0.91,1.18 -1.6,2.47 -2.09,3.86l0 31.37 -16.68 0 0 -54.72 15.01 0 0 9.17c2.02,-3.27 4.87,-5.79 8.55,-7.56 3.68,-1.77 7.92,-2.66 12.72,-2.66 3.54,0 6.41,0.65 8.6,1.93 2.19,1.29 3.87,2.95 5.05,5 1.18,2.06 1.97,4.3 2.35,6.73 0.38,2.43 0.57,4.79 0.57,7.09l0 35.02zm47.64 0l-14.28 -21.99 -5.84 6.04 0 15.95 -16.68 0 0 -76.1 16.68 0 0 44.1 18.56 -22.72 17.72 0 -19.71 23.56 21.27 31.16 -17.72 0zm45.86 1.04c-4.65,0 -8.8,-0.76 -12.45,-2.29 -3.65,-1.53 -6.72,-3.6 -9.23,-6.2 -2.5,-2.61 -4.39,-5.63 -5.67,-9.07 -1.29,-3.44 -1.93,-7.04 -1.93,-10.79 0,-3.75 0.64,-7.35 1.93,-10.79 1.28,-3.44 3.17,-6.46 5.67,-9.07 2.51,-2.6 5.58,-4.69 9.23,-6.25 3.65,-1.57 7.8,-2.35 12.45,-2.35 4.66,0 8.8,0.78 12.41,2.35 3.62,1.56 6.68,3.65 9.18,6.25 2.5,2.61 4.41,5.63 5.73,9.07 1.32,3.44 1.98,7.04 1.98,10.79 0,3.75 -0.64,7.35 -1.93,10.79 -1.28,3.44 -3.18,6.46 -5.68,9.07 -2.5,2.6 -5.58,4.67 -9.23,6.2 -3.65,1.53 -7.8,2.29 -12.46,2.29zm-12.19 -28.35c0,4.31 1.15,7.77 3.44,10.37 2.29,2.61 5.21,3.91 8.75,3.91 1.74,0 3.34,-0.34 4.8,-1.04 1.46,-0.69 2.73,-1.67 3.81,-2.92 1.08,-1.25 1.93,-2.76 2.55,-4.54 0.63,-1.77 0.94,-3.69 0.94,-5.78 0,-4.31 -1.15,-7.77 -3.44,-10.37 -2.29,-2.61 -5.18,-3.91 -8.66,-3.91 -1.73,0 -3.35,0.35 -4.84,1.04 -1.49,0.7 -2.78,1.67 -3.86,2.92 -1.07,1.25 -1.93,2.76 -2.55,4.54 -0.63,1.77 -0.94,3.69 -0.94,5.78zm136.04 27.31l-16.68 0 0 -30.75c0,-3.61 -0.64,-6.24 -1.93,-7.87 -1.29,-1.63 -3.01,-2.45 -5.16,-2.45 -2.23,0 -4.39,0.9 -6.52,2.71 -2.12,1.81 -3.66,4.14 -4.64,6.99l0 31.37 -16.67 0 0 -30.75c0,-3.61 -0.65,-6.24 -1.93,-7.87 -1.29,-1.63 -3.01,-2.45 -5.16,-2.45 -2.23,0 -4.4,0.89 -6.52,2.66 -2.12,1.77 -3.66,4.12 -4.64,7.04l0 31.37 -16.67 0 0 -54.72 15 0 0 9.17c2.02,-3.34 4.76,-5.88 8.24,-7.61 3.47,-1.74 7.51,-2.61 12.09,-2.61 2.23,0 4.21,0.28 5.94,0.84 1.74,0.55 3.22,1.32 4.44,2.29 1.21,0.97 2.22,2.1 3.02,3.39 0.8,1.28 1.37,2.66 1.72,4.12 2.01,-3.41 4.73,-6.03 8.13,-7.88 3.41,-1.84 7.3,-2.76 11.68,-2.76 3.47,0 6.27,0.65 8.39,1.93 2.11,1.29 3.76,2.95 4.95,5 1.18,2.06 1.96,4.3 2.34,6.73 0.39,2.43 0.58,4.79 0.58,7.09l0 35.02z"/>
   <polygon class="fil7" points="624.46,98.37 624.46,81.38 638.01,81.38 638.01,98.37 "/>
   <path class="fil6" d="M283.83 118.25l1.97 0 -8.86 20.49 -1.66 0 -4.61 -10.83 -4.61 10.83 -1.69 0 -8.82 -20.49 1.93 0 7.84 18.32 4.29 -10.08 -3.51 -8.19 1.74 0 2.83 6.77 2.8 -6.77 1.74 0 -3.47 8.19 4.29 10.08 7.8 -18.32zm14.5 20.89c-1.45,0 -2.79,-0.29 -4.02,-0.85 -1.23,-0.57 -2.3,-1.34 -3.21,-2.33 -0.91,-0.98 -1.62,-2.12 -2.13,-3.4 -0.51,-1.29 -0.77,-2.67 -0.77,-4.14 0,-1.44 0.26,-2.81 0.77,-4.08 0.51,-1.27 1.22,-2.39 2.11,-3.35 0.89,-0.95 1.96,-1.71 3.19,-2.26 1.23,-0.55 2.56,-0.83 3.98,-0.83 1.44,0 2.78,0.28 4,0.85 1.22,0.56 2.28,1.32 3.17,2.28 0.89,0.96 1.6,2.08 2.11,3.35 0.51,1.27 0.77,2.62 0.77,4.04 0,0.13 -0.01,0.29 -0.02,0.49 -0.02,0.2 -0.02,0.32 -0.02,0.38l-18.01 0c0.08,1.18 0.36,2.27 0.83,3.29 0.47,1.01 1.07,1.88 1.79,2.62 0.72,0.73 1.56,1.31 2.5,1.73 0.95,0.42 1.96,0.63 3.04,0.63 0.7,0 1.41,-0.1 2.11,-0.3 0.69,-0.19 1.33,-0.46 1.93,-0.81 0.58,-0.33 1.11,-0.75 1.57,-1.23 0.46,-0.49 0.82,-1.02 1.09,-1.6l1.73 0.47c-0.32,0.74 -0.76,1.41 -1.32,2.03 -0.57,0.62 -1.22,1.15 -1.97,1.6 -0.75,0.44 -1.57,0.79 -2.46,1.04 -0.9,0.25 -1.82,0.38 -2.76,0.38zm8.03 -11.43c-0.07,-1.21 -0.34,-2.31 -0.8,-3.31 -0.46,-1 -1.05,-1.86 -1.78,-2.58 -0.72,-0.72 -1.55,-1.29 -2.5,-1.69 -0.94,-0.41 -1.95,-0.61 -3.03,-0.61 -1.08,0 -2.09,0.2 -3.04,0.61 -0.94,0.4 -1.77,0.97 -2.5,1.69 -0.72,0.72 -1.29,1.59 -1.73,2.6 -0.43,1.01 -0.69,2.11 -0.77,3.29l16.15 0zm15.8 11.43c-1.63,0 -3.14,-0.43 -4.53,-1.27 -1.39,-0.84 -2.48,-1.91 -3.27,-3.23l0 4.1 -1.77 0 0 -28.76 1.97 0 0 12.73c0.97,-1.42 2.11,-2.58 3.43,-3.47 1.31,-0.89 2.83,-1.34 4.57,-1.34 1.44,0 2.75,0.31 3.92,0.93 1.16,0.61 2.15,1.43 2.95,2.44 0.8,1.01 1.42,2.15 1.85,3.43 0.44,1.27 0.65,2.56 0.65,3.88 0,1.41 -0.25,2.76 -0.75,4.03 -0.5,1.28 -1.18,2.4 -2.06,3.35 -0.88,0.96 -1.92,1.73 -3.11,2.31 -1.2,0.57 -2.48,0.87 -3.85,0.87zm-0.39 -1.78c1.18,0 2.27,-0.25 3.27,-0.75 1,-0.49 1.86,-1.16 2.58,-1.99 0.72,-0.82 1.29,-1.76 1.69,-2.81 0.41,-1.05 0.61,-2.13 0.61,-3.23 0,-1.16 -0.19,-2.27 -0.57,-3.33 -0.38,-1.07 -0.91,-2.01 -1.59,-2.84 -0.69,-0.82 -1.51,-1.49 -2.46,-1.99 -0.96,-0.5 -2.02,-0.75 -3.18,-0.75 -0.86,0 -1.68,0.16 -2.46,0.46 -0.77,0.3 -1.48,0.7 -2.13,1.2 -0.64,0.5 -1.21,1.08 -1.71,1.73 -0.5,0.66 -0.92,1.34 -1.26,2.05l0 6.78c0.08,0.76 0.36,1.47 0.85,2.14 0.48,0.67 1.08,1.25 1.79,1.74 0.71,0.48 1.47,0.87 2.28,1.16 0.82,0.29 1.58,0.43 2.29,0.43zm14.26 1.93c0.19,0 0.35,-0.04 0.49,-0.14 0.15,-0.09 0.22,-0.28 0.22,-0.57l0 -3.19 1.73 0 0 3.43c0,0.73 -0.25,1.26 -0.75,1.58 -0.5,0.31 -1.06,0.47 -1.69,0.47l0 -1.58zm48.73 -0.55l-1.97 0 0 -11.42c0,-2.6 -0.4,-4.52 -1.2,-5.76 -0.8,-1.23 -2.03,-1.85 -3.68,-1.85 -0.87,0 -1.68,0.16 -2.45,0.47 -0.76,0.32 -1.45,0.76 -2.07,1.33 -0.61,0.56 -1.15,1.23 -1.61,2.01 -0.46,0.77 -0.82,1.63 -1.08,2.57l0 12.65 -1.97 0 0 -11.42c0,-2.63 -0.4,-4.55 -1.19,-5.77 -0.78,-1.23 -2.01,-1.84 -3.66,-1.84 -0.84,0 -1.64,0.16 -2.4,0.46 -0.76,0.3 -1.46,0.73 -2.09,1.3 -0.63,0.56 -1.18,1.23 -1.65,2.01 -0.47,0.77 -0.85,1.63 -1.11,2.58l0 12.68 -1.97 0 0 -20.49 1.81 0 0 4.89c0.87,-1.65 1.99,-2.94 3.35,-3.86 1.37,-0.92 2.88,-1.38 4.53,-1.38 1.74,0 3.14,0.51 4.2,1.54 1.06,1.02 1.7,2.36 1.91,4.02 2,-3.71 4.68,-5.56 8.04,-5.56 2.26,0 3.86,0.8 4.82,2.38 0.96,1.59 1.44,3.82 1.44,6.68l0 11.78zm14.46 0.4c-1.45,0 -2.78,-0.29 -4,-0.85 -1.22,-0.57 -2.28,-1.34 -3.17,-2.31 -0.9,-0.97 -1.59,-2.1 -2.09,-3.38 -0.5,-1.29 -0.75,-2.64 -0.75,-4.06 0,-1.45 0.26,-2.81 0.77,-4.1 0.51,-1.29 1.22,-2.42 2.13,-3.39 0.9,-0.97 1.96,-1.74 3.17,-2.3 1.21,-0.57 2.52,-0.85 3.94,-0.85 1.42,0 2.74,0.28 3.96,0.85 1.22,0.56 2.28,1.33 3.19,2.3 0.91,0.97 1.61,2.1 2.13,3.39 0.51,1.29 0.76,2.65 0.76,4.1 0,1.42 -0.25,2.77 -0.76,4.06 -0.52,1.28 -1.22,2.41 -2.11,3.38 -0.9,0.97 -1.96,1.74 -3.19,2.31 -1.24,0.56 -2.56,0.85 -3.98,0.85zm-8 -10.52c0,1.21 0.21,2.34 0.63,3.4 0.42,1.07 0.99,1.99 1.72,2.78 0.72,0.79 1.56,1.41 2.54,1.87 0.97,0.46 2,0.69 3.11,0.69 1.1,0 2.14,-0.23 3.11,-0.69 0.97,-0.46 1.82,-1.09 2.54,-1.91 0.73,-0.81 1.3,-1.75 1.73,-2.82 0.44,-1.06 0.66,-2.21 0.66,-3.44 0,-1.21 -0.22,-2.34 -0.66,-3.41 -0.43,-1.06 -1,-2 -1.73,-2.8 -0.72,-0.8 -1.57,-1.43 -2.54,-1.91 -0.97,-0.47 -2.01,-0.71 -3.11,-0.71 -1.08,0 -2.1,0.24 -3.07,0.71 -0.98,0.48 -1.83,1.12 -2.57,1.93 -0.73,0.82 -1.31,1.77 -1.73,2.86 -0.42,1.09 -0.63,2.24 -0.63,3.45zm32.26 10.52c-1.62,0 -3.13,-0.43 -4.52,-1.27 -1.4,-0.84 -2.49,-1.91 -3.28,-3.23l0 4.1 -1.77 0 0 -28.76 1.97 0 0 12.73c0.97,-1.42 2.12,-2.58 3.43,-3.47 1.31,-0.89 2.84,-1.34 4.57,-1.34 1.44,0 2.75,0.31 3.92,0.93 1.17,0.61 2.15,1.43 2.95,2.44 0.8,1.01 1.42,2.15 1.85,3.43 0.44,1.27 0.65,2.56 0.65,3.88 0,1.41 -0.25,2.76 -0.74,4.03 -0.5,1.28 -1.19,2.4 -2.07,3.35 -0.88,0.96 -1.92,1.73 -3.11,2.31 -1.2,0.57 -2.48,0.87 -3.85,0.87zm-0.39 -1.78c1.18,0 2.27,-0.25 3.27,-0.75 1,-0.49 1.86,-1.16 2.58,-1.99 0.72,-0.82 1.29,-1.76 1.69,-2.81 0.41,-1.05 0.62,-2.13 0.62,-3.23 0,-1.16 -0.2,-2.27 -0.57,-3.33 -0.38,-1.07 -0.92,-2.01 -1.6,-2.84 -0.68,-0.82 -1.51,-1.49 -2.46,-1.99 -0.96,-0.5 -2.02,-0.75 -3.17,-0.75 -0.87,0 -1.69,0.16 -2.47,0.46 -0.77,0.3 -1.48,0.7 -2.13,1.2 -0.64,0.5 -1.21,1.08 -1.71,1.73 -0.5,0.66 -0.92,1.34 -1.26,2.05l0 6.78c0.08,0.76 0.36,1.47 0.85,2.14 0.48,0.67 1.08,1.25 1.79,1.74 0.71,0.48 1.47,0.87 2.29,1.16 0.81,0.29 1.57,0.43 2.28,0.43zm14.89 1.38l0 -20.49 1.97 0 0 20.49 -1.97 0zm0 -25.13l0 -3.63 1.97 0 0 3.63 -1.97 0zm8.16 -3.63l2.01 0 0 24.7c0,0.76 0.21,1.37 0.64,1.82 0.44,0.44 1.04,0.66 1.8,0.66 0.29,0 0.64,-0.03 1.04,-0.09 0.41,-0.07 0.78,-0.17 1.13,-0.3l0.39 1.58c-0.45,0.18 -1,0.33 -1.65,0.45 -0.66,0.12 -1.23,0.18 -1.7,0.18 -1.1,0 -1.99,-0.34 -2.66,-1.01 -0.67,-0.67 -1,-1.57 -1,-2.7l0 -25.29zm18.43 29.16c-1.44,0 -2.78,-0.29 -4.01,-0.85 -1.24,-0.57 -2.31,-1.34 -3.22,-2.33 -0.9,-0.98 -1.61,-2.12 -2.12,-3.4 -0.51,-1.29 -0.77,-2.67 -0.77,-4.14 0,-1.44 0.26,-2.81 0.77,-4.08 0.51,-1.27 1.21,-2.39 2.1,-3.35 0.9,-0.95 1.96,-1.71 3.19,-2.26 1.24,-0.55 2.57,-0.83 3.99,-0.83 1.44,0 2.77,0.28 3.99,0.85 1.22,0.56 2.28,1.32 3.17,2.28 0.9,0.96 1.6,2.08 2.11,3.35 0.51,1.27 0.77,2.62 0.77,4.04 0,0.13 -0.01,0.29 -0.02,0.49 -0.01,0.2 -0.02,0.32 -0.02,0.38l-18 0c0.07,1.18 0.35,2.27 0.82,3.29 0.48,1.01 1.07,1.88 1.8,2.62 0.72,0.73 1.55,1.31 2.5,1.73 0.94,0.42 1.96,0.63 3.03,0.63 0.71,0 1.41,-0.1 2.11,-0.3 0.7,-0.19 1.34,-0.46 1.93,-0.81 0.59,-0.33 1.12,-0.75 1.58,-1.23 0.46,-0.49 0.82,-1.02 1.08,-1.6l1.73 0.47c-0.31,0.74 -0.75,1.41 -1.32,2.03 -0.56,0.62 -1.22,1.15 -1.97,1.6 -0.75,0.44 -1.56,0.79 -2.46,1.04 -0.89,0.25 -1.81,0.38 -2.76,0.38zm8.04 -11.43c-0.08,-1.21 -0.35,-2.31 -0.81,-3.31 -0.46,-1 -1.05,-1.86 -1.77,-2.58 -0.72,-0.72 -1.56,-1.29 -2.5,-1.69 -0.95,-0.41 -1.96,-0.61 -3.03,-0.61 -1.08,0 -2.09,0.2 -3.04,0.61 -0.95,0.4 -1.78,0.97 -2.5,1.69 -0.72,0.72 -1.3,1.59 -1.73,2.6 -0.44,1.01 -0.69,2.11 -0.77,3.29l16.15 0zm36.4 11.03l-3.58 -3.74c-1.08,1.26 -2.35,2.26 -3.81,3.01 -1.45,0.75 -3.05,1.13 -4.78,1.13 -1.18,0 -2.3,-0.18 -3.35,-0.52 -1.05,-0.34 -1.98,-0.83 -2.8,-1.48 -0.81,-0.64 -1.45,-1.41 -1.93,-2.32 -0.47,-0.9 -0.71,-1.94 -0.71,-3.09 0,-0.95 0.17,-1.81 0.49,-2.6 0.33,-0.79 0.78,-1.53 1.35,-2.21 0.56,-0.68 1.22,-1.32 1.97,-1.91 0.74,-0.59 1.54,-1.17 2.38,-1.75 -0.74,-0.79 -1.36,-1.51 -1.87,-2.15 -0.51,-0.64 -0.93,-1.23 -1.26,-1.75 -0.33,-0.53 -0.57,-1.03 -0.71,-1.52 -0.15,-0.48 -0.22,-0.96 -0.22,-1.43 0,-0.82 0.18,-1.59 0.53,-2.31 0.36,-0.72 0.84,-1.36 1.46,-1.91 0.62,-0.55 1.34,-0.99 2.17,-1.3 0.83,-0.32 1.72,-0.47 2.69,-0.47 0.9,0 1.73,0.13 2.51,0.41 0.77,0.27 1.44,0.65 2,1.12 0.57,0.48 1.01,1.04 1.33,1.7 0.31,0.65 0.47,1.36 0.47,2.12 0,0.79 -0.17,1.53 -0.51,2.23 -0.35,0.7 -0.81,1.34 -1.4,1.95 -0.59,0.6 -1.28,1.2 -2.05,1.77 -0.78,0.58 -1.6,1.14 -2.46,1.7l8.43 8.82c0.6,-1.05 1.06,-2.18 1.38,-3.39 0.31,-1.21 0.47,-2.48 0.47,-3.82l1.69 0c0,1.58 -0.2,3.08 -0.61,4.51 -0.4,1.43 -0.99,2.74 -1.75,3.92l5.08 5.28 -2.6 0zm-11.98 -1.22c1.5,0 2.86,-0.34 4.08,-1.01 1.22,-0.66 2.28,-1.56 3.17,-2.69l-8.9 -9.38c-0.76,0.53 -1.46,1.06 -2.11,1.6 -0.64,0.54 -1.21,1.1 -1.71,1.69 -0.5,0.59 -0.89,1.22 -1.16,1.89 -0.28,0.67 -0.42,1.4 -0.42,2.19 0,0.94 0.21,1.77 0.63,2.48 0.42,0.71 0.97,1.31 1.64,1.79 0.67,0.49 1.43,0.85 2.26,1.08 0.85,0.24 1.69,0.36 2.52,0.36zm-5 -21.15c0,0.34 0.05,0.68 0.14,1.02 0.09,0.34 0.28,0.74 0.55,1.2 0.28,0.46 0.66,0.98 1.14,1.56 0.49,0.58 1.12,1.27 1.91,2.09 0.87,-0.58 1.65,-1.13 2.35,-1.64 0.69,-0.51 1.29,-1.02 1.79,-1.52 0.5,-0.5 0.89,-1.01 1.16,-1.53 0.28,-0.53 0.42,-1.09 0.42,-1.7 0,-1.1 -0.42,-2.01 -1.27,-2.74 -0.83,-0.72 -1.9,-1.08 -3.19,-1.08 -0.7,0 -1.36,0.12 -1.96,0.36 -0.61,0.23 -1.14,0.55 -1.6,0.94 -0.46,0.39 -0.81,0.85 -1.06,1.38 -0.25,0.53 -0.38,1.08 -0.38,1.66zm63.47 22.37l-1.97 0 0 -11.42c0,-2.6 -0.4,-4.52 -1.2,-5.76 -0.81,-1.23 -2.03,-1.85 -3.69,-1.85 -0.86,0 -1.68,0.16 -2.44,0.47 -0.76,0.32 -1.45,0.76 -2.07,1.33 -0.62,0.56 -1.15,1.23 -1.61,2.01 -0.46,0.77 -0.82,1.63 -1.09,2.57l0 12.65 -1.96 0 0 -11.42c0,-2.63 -0.4,-4.55 -1.19,-5.77 -0.78,-1.23 -2.01,-1.84 -3.66,-1.84 -0.84,0 -1.64,0.16 -2.41,0.46 -0.76,0.3 -1.45,0.73 -2.08,1.3 -0.63,0.56 -1.18,1.23 -1.66,2.01 -0.47,0.77 -0.84,1.63 -1.1,2.58l0 12.68 -1.97 0 0 -20.49 1.81 0 0 4.89c0.87,-1.65 1.99,-2.94 3.35,-3.86 1.37,-0.92 2.88,-1.38 4.53,-1.38 1.73,0 3.13,0.51 4.2,1.54 1.06,1.02 1.7,2.36 1.91,4.02 1.99,-3.71 4.67,-5.56 8.03,-5.56 2.26,0 3.87,0.8 4.83,2.38 0.96,1.59 1.44,3.82 1.44,6.68l0 11.78zm14.57 0.4c-1.44,0 -2.78,-0.29 -4.01,-0.85 -1.24,-0.57 -2.31,-1.34 -3.21,-2.33 -0.91,-0.98 -1.62,-2.12 -2.13,-3.4 -0.51,-1.29 -0.77,-2.67 -0.77,-4.14 0,-1.44 0.26,-2.81 0.77,-4.08 0.51,-1.27 1.21,-2.39 2.1,-3.35 0.9,-0.95 1.96,-1.71 3.2,-2.26 1.23,-0.55 2.56,-0.83 3.98,-0.83 1.44,0 2.77,0.28 3.99,0.85 1.22,0.56 2.28,1.32 3.17,2.28 0.9,0.96 1.6,2.08 2.11,3.35 0.51,1.27 0.77,2.62 0.77,4.04 0,0.13 -0.01,0.29 -0.02,0.49 -0.01,0.2 -0.02,0.32 -0.02,0.38l-18 0c0.07,1.18 0.35,2.27 0.82,3.29 0.48,1.01 1.07,1.88 1.8,2.62 0.72,0.73 1.55,1.31 2.5,1.73 0.94,0.42 1.96,0.63 3.03,0.63 0.71,0 1.41,-0.1 2.11,-0.3 0.7,-0.19 1.34,-0.46 1.93,-0.81 0.59,-0.33 1.12,-0.75 1.57,-1.23 0.47,-0.49 0.83,-1.02 1.09,-1.6l1.73 0.47c-0.31,0.74 -0.75,1.41 -1.32,2.03 -0.56,0.62 -1.22,1.15 -1.97,1.6 -0.75,0.44 -1.57,0.79 -2.46,1.04 -0.89,0.25 -1.81,0.38 -2.76,0.38zm8.04 -11.43c-0.08,-1.21 -0.35,-2.31 -0.81,-3.31 -0.46,-1 -1.05,-1.86 -1.77,-2.58 -0.72,-0.72 -1.56,-1.29 -2.5,-1.69 -0.95,-0.41 -1.96,-0.61 -3.03,-0.61 -1.08,0 -2.09,0.2 -3.04,0.61 -0.94,0.4 -1.78,0.97 -2.5,1.69 -0.72,0.72 -1.3,1.59 -1.73,2.6 -0.44,1.01 -0.69,2.11 -0.77,3.29l16.15 0zm14.69 11.43c-1.42,0 -2.73,-0.3 -3.93,-0.89 -1.21,-0.59 -2.26,-1.38 -3.14,-2.37 -0.88,-0.98 -1.56,-2.11 -2.04,-3.38 -0.49,-1.28 -0.73,-2.6 -0.73,-3.96 0,-1.42 0.23,-2.77 0.71,-4.06 0.47,-1.29 1.13,-2.42 1.97,-3.39 0.84,-0.97 1.83,-1.75 2.97,-2.32 1.14,-0.58 2.39,-0.87 3.76,-0.87 0.89,0 1.74,0.13 2.54,0.4 0.8,0.26 1.54,0.61 2.21,1.04 0.67,0.43 1.28,0.94 1.83,1.52 0.55,0.57 1.02,1.19 1.42,1.85l0 -12.73 1.97 0 0 26c0,0.66 0.27,0.99 0.82,0.99l0 1.77c-0.13,0.03 -0.24,0.04 -0.35,0.04 -0.1,0 -0.21,0 -0.31,0 -0.58,0 -1.05,-0.18 -1.4,-0.55 -0.36,-0.37 -0.53,-0.78 -0.53,-1.22l0 -2.37c-0.84,1.37 -1.97,2.46 -3.37,3.27 -1.41,0.82 -2.87,1.23 -4.4,1.23zm0.36 -1.78c0.71,0 1.47,-0.14 2.28,-0.43 0.82,-0.29 1.58,-0.69 2.29,-1.2 0.71,-0.51 1.31,-1.1 1.79,-1.76 0.49,-0.65 0.77,-1.36 0.85,-2.12l0 -6.74c-0.29,-0.74 -0.71,-1.44 -1.24,-2.11 -0.54,-0.67 -1.15,-1.25 -1.84,-1.73 -0.68,-0.49 -1.41,-0.87 -2.2,-1.16 -0.79,-0.29 -1.55,-0.44 -2.29,-0.44 -1.18,0 -2.25,0.26 -3.21,0.77 -0.96,0.51 -1.78,1.18 -2.48,2.01 -0.69,0.83 -1.23,1.77 -1.59,2.84 -0.37,1.06 -0.56,2.16 -0.56,3.29 0,1.18 0.21,2.29 0.64,3.34 0.42,1.06 1,1.99 1.75,2.8 0.75,0.82 1.61,1.46 2.6,1.93 0.98,0.48 2.05,0.71 3.21,0.71zm15.44 1.38l0 -20.49 1.97 0 0 20.49 -1.97 0zm0 -25.13l0 -3.63 1.97 0 0 3.63 -1.97 0zm13.12 25.53c-0.95,0 -1.83,-0.17 -2.66,-0.5 -0.83,-0.33 -1.55,-0.77 -2.17,-1.34 -0.62,-0.56 -1.09,-1.23 -1.44,-2 -0.33,-0.78 -0.51,-1.61 -0.51,-2.51 0,-0.89 0.21,-1.71 0.63,-2.44 0.42,-0.74 1.01,-1.37 1.78,-1.91 0.76,-0.54 1.66,-0.96 2.69,-1.26 1.04,-0.3 2.19,-0.45 3.45,-0.45 1.11,0 2.22,0.09 3.35,0.29 1.13,0.2 2.14,0.47 3.03,0.81l0 -2.01c0,-1.94 -0.55,-3.49 -1.65,-4.63 -1.1,-1.14 -2.6,-1.71 -4.49,-1.71 -1.03,0 -2.1,0.21 -3.21,0.63 -1.12,0.42 -2.24,1.02 -3.37,1.81l-0.79 -1.34c2.65,-1.79 5.15,-2.68 7.49,-2.68 2.46,0 4.41,0.72 5.85,2.15 1.43,1.43 2.14,3.41 2.14,5.93l0 10c0,0.66 0.28,0.99 0.83,0.99l0 1.77c-0.13,0.03 -0.26,0.04 -0.38,0.04 -0.11,0 -0.22,0 -0.33,0 -0.47,0 -0.91,-0.16 -1.3,-0.49 -0.39,-0.33 -0.59,-0.76 -0.59,-1.28l0 -1.7c-0.95,1.24 -2.15,2.18 -3.6,2.84 -1.46,0.66 -3.04,0.99 -4.75,0.99zm0.39 -1.58c1.53,0 2.93,-0.28 4.22,-0.85 1.29,-0.56 2.24,-1.33 2.87,-2.3 0.45,-0.53 0.67,-1.05 0.67,-1.58l0 -3.62c-1.99,-0.74 -4.04,-1.11 -6.14,-1.11 -2.05,0 -3.71,0.42 -4.97,1.26 -1.26,0.84 -1.89,1.95 -1.89,3.31 0,0.69 0.14,1.33 0.4,1.94 0.26,0.6 0.63,1.12 1.1,1.55 0.47,0.43 1.03,0.78 1.67,1.02 0.65,0.25 1.34,0.38 2.07,0.38zm15.41 1.18l0 -3.35 1.73 0 0 3.35 -1.73 0z"/>
  </g>
 </g>
</svg>
