<?xml version="1.0" encoding="windows-1252"?>
<!-- Generator: Adobe Illustrator 18.0.0, SVG Export Plug-In . SVG Version: 6.00 Build 0)  -->
<!DOCTYPE svg PUBLIC "-//W3C//DTD SVG 1.1//EN" "http://www.w3.org/Graphics/SVG/1.1/DTD/svg11.dtd">
<svg version="1.1" id="Layer_1" xmlns="http://www.w3.org/2000/svg" xmlns:xlink="http://www.w3.org/1999/xlink" x="0px" y="0px" viewBox="0 0 256 256" style="enable-background:new 0 0 256 256;" xml:space="preserve">
<g>
	<g>
		<g>
			<path style="fill:#FCCD32;" d="M128.739,253.535c-68.896,0-124.946-56.05-124.946-124.944     c0-68.895,56.051-124.945,124.946-124.945c68.894,0,124.944,56.05,124.944,124.945     C253.683,197.485,197.633,253.535,128.739,253.535z"/>
		</g>
		<g>
			<path style="fill:#272361;" d="M128.739,253.535c-68.896,0-124.946-56.05-124.946-124.945S59.844,3.646,128.739,3.646     c68.894,0,124.944,56.049,124.944,124.944C253.683,197.484,197.633,253.535,128.739,253.535z M128.739,9.689     c-65.563,0-118.902,53.338-118.902,118.9s53.339,118.902,118.902,118.902c65.562,0,118.9-53.339,118.9-118.902     S194.301,9.689,128.739,9.689z"/>
		</g>
		<g>
			<path style="fill:none;" d="M39.808,71.571l-13.715-2.906c-2.909,4.686-11.175,19.791-15.231,45.651     c-3.024,19.278,1.467,38.765,3.158,45.077h11.448C28.592,150.19,41.184,110.443,39.808,71.571z"/>
			<path style="fill:#272361;" d="M252.873,114.814c-3.192-27.431-14.176-45.965-14.641-46.74c-0.627-1.042-1.815-1.609-3.018-1.435     l-23.568,3.368c-0.485,0.07-0.928,0.259-1.309,0.528c-10.927-3.94-51.696-17.929-79.549-17.929     c-16.983,0-30.39,2.952-40.583,9.065c-17.887,0.529-43.404,3.841-47.36,4.366l-17.513-3.711c-1.158-0.244-2.35,0.207-3.054,1.157     C21.781,64.15,10.092,80.219,4.892,113.38c-3.886,24.764,3.643,48.931,3.965,49.948c0.398,1.255,1.563,2.108,2.88,2.108h15.876     c1.266,0,2.399-0.79,2.835-1.978c0.22-0.596,1.941-5.334,4.164-12.931c12.865,9.159,56.507,40.164,67.288,46.973     c7.475,4.721,14.814,7.075,21.593,7.075c6.733,0,12.911-2.33,18.126-6.961c2.003,0.782,3.934,1.34,5.731,1.591     c1.006,0.14,1.988,0.206,2.95,0.206c12.269,0,20.951-10.717,23.497-14.277c10.021-1.843,17.494-12.156,20.081-16.211     c0.863-0.003,1.689-0.058,2.469-0.174c4.284-0.633,6.485-2.843,7.592-4.649l12.79-17.776c3.577,13.367,7.048,21.753,7.375,22.529     c0.471,1.121,1.569,1.85,2.785,1.85h17.547c1.247,0,2.365-0.766,2.817-1.929C247.628,167.811,256.366,144.845,252.873,114.814z      M25.467,159.393H14.019c-1.691-6.312-6.182-25.798-3.158-45.077c4.056-25.861,12.322-40.965,15.231-45.651l13.715,2.906     C41.184,110.443,28.592,150.19,25.467,159.393z M195.464,162.77c-8.082,1.194-26.904-7.018-45.868-24.587     c-1.223-1.134-3.136-1.061-4.27,0.163c-1.135,1.224-1.061,3.136,0.163,4.271c14.239,13.192,29.948,22.599,41.665,25.421     c-3.331,4.565-9.739,11.714-16.985,11.331c-9.448-0.497-32.031-19.483-39.935-26.756c-1.227-1.129-3.139-1.051-4.27,0.177     c-1.13,1.228-1.051,3.14,0.177,4.27c2.82,2.596,26.085,23.728,40.18,27.711c-3.65,4.041-10.212,9.558-18.133,8.449     c-10.667-1.49-29.725-17.808-36.169-23.97c-1.205-1.154-3.118-1.111-4.271,0.095c-1.154,1.206-1.112,3.119,0.094,4.273     c0.762,0.728,14.622,13.906,27.722,21.114c-10.871,7.689-23.496,2.043-30.435-2.341c-11.064-6.988-59.019-41.096-68.78-48.047     c4.735-17.579,10.437-44.995,9.511-72.604c6.199-0.793,21.911-2.707,35.939-3.61c-5.864,5.711-10.173,13.037-13.036,22.072     c-3.99,12.589-1.49,19.583,1.312,23.234c2.723,3.548,7.046,5.546,11.562,5.34c9.92-0.449,23.043-15.308,26.261-19.129     l13.61-4.253c21.285,13.011,60.954,37.531,66.192,41.77c6.823,5.523,15.417,16.399,11.124,23.723     C198.603,161.262,197.932,162.405,195.464,162.77z M205.396,151.727c-2.1-7.781-8.776-15.118-13.895-19.262     c-6.974-5.646-65.523-41.424-68.012-42.945c-0.744-0.453-1.648-0.565-2.477-0.305l-15.77,4.928     c-0.564,0.176-1.064,0.515-1.438,0.971c-5.453,6.668-16.368,17.348-22.44,17.623c-1.22,0.054-4.301-0.124-6.494-2.982     c-2.722-3.548-2.846-9.844-0.346-17.728c7.32-23.084,24.671-33.378,56.264-33.378c27.031,0,68.392,14.298,78.059,17.78     c-1.192,23.856,2.119,45.734,5.963,62.218L205.396,151.727z M242.282,164.659h-13.335c-3.28-8.606-16.391-46.074-14.011-89.018     l19.071-2.726c2.703,5.105,10.361,21.096,12.863,42.597C249.623,139.177,244.231,158.634,242.282,164.659z"/>
			<path style="fill:#FFFFFF;" d="M168.756,134.977c-11.535-6.982-44.927-26.41-44.927-26.41l-11.839,2.225     c0,0-7.266,7.927-15.785,13.864c-12.446,8.674-25.196,3.642-36.428-8.803c-11.232-12.446,0-35.517,0-35.517     c-5.147-0.226-9.956,0.472-13.862,1.386c-0.497,24.108-5.405,47.167-9.567,62.622c9.761,6.952,57.716,41.059,68.78,48.047     c6.939,4.383,19.564,10.029,30.435,2.341c-13.099-7.209-26.961-20.385-27.723-21.114c-1.205-1.153-1.248-3.066-0.094-4.272     c1.153-1.206,3.066-1.249,4.273-0.096c6.443,6.162,25.5,22.48,36.169,23.97c7.921,1.109,14.482-4.408,18.133-8.448     c-14.095-3.983-37.36-25.115-40.181-27.711c-1.228-1.13-1.306-3.042-0.177-4.27c1.131-1.229,3.043-1.307,4.27-0.178     c7.905,7.274,30.487,26.26,39.936,26.757c7.246,0.382,13.653-6.766,16.984-11.332c-11.715-2.822-27.424-12.228-41.665-25.421     c-1.224-1.134-1.297-3.046-0.163-4.27c1.135-1.225,3.047-1.297,4.27-0.164c15.229,14.109,30.362,22.178,39.919,24.193     C194.14,152.663,178.803,141.057,168.756,134.977z"/>
			<path style="fill:#E6E6E5;" d="M187.698,137.163c-5.237-4.24-44.906-28.759-66.191-41.77l-13.611,4.253     c-3.216,3.822-16.339,18.681-26.261,19.13c-4.515,0.205-8.839-1.792-11.561-5.341c-2.802-3.651-5.304-10.645-1.314-23.234     c2.865-9.035,7.173-16.361,13.036-22.072c-14.028,0.903-29.741,2.816-35.939,3.61c0.112,3.336,0.125,6.668,0.057,9.982     c3.906-0.914,8.715-1.612,13.862-1.386c0,0-11.232,23.071,0,35.517c11.233,12.445,23.982,17.477,36.428,8.803     c8.519-5.937,15.785-13.864,15.785-13.864l11.839-2.225c0,0,33.392,19.428,44.927,26.41c10.046,6.08,25.384,17.686,20.758,27.399     c2.344,0.495,4.357,0.63,5.949,0.395c2.469-0.365,3.139-1.508,3.359-1.883C203.115,153.562,194.522,142.686,187.698,137.163z"/>
			<path style="fill:#E6E6E5;" d="M224.755,74.238l-9.819,1.404c-2.382,42.944,10.731,80.412,14.01,89.018h7.782     C232.086,148.595,223.729,113.783,224.755,74.238z"/>
			<path style="fill:#FFFFFF;" d="M246.868,115.513c-2.501-21.501-10.16-37.493-12.862-42.597l-9.252,1.322     c-1.027,39.545,7.33,74.357,11.973,90.421h5.554C244.231,158.635,249.622,139.178,246.868,115.513z"/>
			<path style="fill:#E6E6E5;" d="M39.808,71.571l-8.099-1.716c0.221,36.412-7.864,72.516-12.305,89.537h6.062     C28.591,150.19,41.184,110.444,39.808,71.571z"/>
			<path style="fill:#FFFFFF;" d="M31.709,69.855l-5.617-1.191c-2.908,4.687-11.174,19.791-15.231,45.651     c-3.023,19.278,1.467,38.765,3.158,45.077h5.386C23.845,142.372,31.93,106.267,31.709,69.855z"/>
			<path style="fill:#E6E6E5;" d="M129.621,69.855c25.456,0,62.571,10.677,78.983,15.824c0.011-3.045,0.086-6.13,0.242-9.251     c-9.668-3.481-51.028-17.779-78.06-17.779c-30.505,0-47.73,9.601-55.47,31.043C85.478,76.08,102.86,69.855,129.621,69.855z"/>
			<path style="fill:#FFFFFF;" d="M74.868,109.755c2.193,2.858,5.274,3.037,6.494,2.983c6.074-0.275,16.987-10.955,22.442-17.622     c0.373-0.458,0.874-0.796,1.438-0.972l15.77-4.928c0.829-0.26,1.732-0.148,2.476,0.305c2.489,1.52,61.038,37.298,68.012,42.945     c5.121,4.143,11.797,11.48,13.897,19.262l9.411-13.081c-3.341-14.327-6.275-32.732-6.204-52.968     c-16.412-5.147-53.527-15.824-78.983-15.824c-26.762,0-44.143,6.224-54.305,19.837c-0.276,0.764-0.543,1.54-0.795,2.335     C72.023,99.911,72.146,106.208,74.868,109.755z"/>
		</g>
	</g>
</g>
</svg>