<?xml version="1.0" encoding="windows-1252"?>
<!-- Generator: Adobe Illustrator 18.0.0, SVG Export Plug-In . SVG Version: 6.00 Build 0)  -->
<!DOCTYPE svg PUBLIC "-//W3C//DTD SVG 1.1//EN" "http://www.w3.org/Graphics/SVG/1.1/DTD/svg11.dtd">
<svg version="1.1" id="Layer_1" xmlns="http://www.w3.org/2000/svg" xmlns:xlink="http://www.w3.org/1999/xlink" x="0px" y="0px" viewBox="0 0 256 256" style="enable-background:new 0 0 256 256;" xml:space="preserve">
<g>
	<g>
		<g>
			<path style="fill:#FCCD32;" d="M128.007,253.396c-69.047,0-125.221-56.173-125.221-125.219     C2.786,59.131,58.96,2.958,128.007,2.958c69.046,0,125.219,56.173,125.219,125.219     C253.225,197.223,197.053,253.396,128.007,253.396z"/>
		</g>
		<g>
			<path style="fill:#272361;" d="M128.006,253.396c-69.046,0-125.22-56.173-125.22-125.22S58.96,2.957,128.006,2.957     c69.047,0,125.22,56.173,125.22,125.22c0,33.381-13.519,64.948-38.065,88.887C191.483,240.153,159.716,253.396,128.006,253.396z      M128.006,9.014C62.299,9.014,8.843,62.47,8.843,128.177S62.299,247.34,128.006,247.34c64.592,0,119.162-54.57,119.162-119.163     C247.168,62.47,193.712,9.014,128.006,9.014z"/>
		</g>
		<path style="fill:#E6E6E5;" d="M80.765,139.065c1.736,2.66,4.138,4.459,7.161,4.595c0.077,0.004,0.154,0.005,0.23,0.005    c0.001,0,0.001,0,0.001,0c2.711,0,5.293-2.23,7.789-4.387c0.631-0.545,1.267-1.093,1.915-1.614c-2.267-2.006-5.151-3-8.677-3    C85.964,134.664,83.315,136.865,80.765,139.065z"/>
		<path style="fill:#E6E6E5;" d="M90.289,121.568c1.894-0.145,4.539-0.954,6.897-3.81c-0.241-0.222-0.48-0.445-0.713-0.664    c-2.416-2.265-4.502-4.222-8.121-4.222l-0.21,0.002c-2.671,0.055-5.421,1.391-7.463,3.876c0.122,0.114,0.244,0.228,0.367,0.343    C83.428,119.329,86.166,121.889,90.289,121.568z"/>
		<path style="fill:#E6E6E5;" d="M143.103,71.219c-0.164,0.804-1.842,2.847-2.962,4.21c-3.152,3.837-7.468,9.091-6.989,15.784    c0.647,9.048,15.866,16.334,28.035,16.334c2.482,0,4.936-0.357,7.292-0.966c-9.929-2.266-19.391-8.275-19.899-15.368    c-0.479-6.693,3.837-11.947,6.989-15.784c1.12-1.363,2.798-3.405,2.962-4.21c-0.43-1.501-3.649-2.394-8.661-2.394    c-1.313,0-2.778,0.06-4.351,0.178c-1.326,0.099-3,0.275-4.881,0.501C142.032,69.914,142.895,70.495,143.103,71.219z"/>
		<path style="fill:#E6E6E5;" d="M246.925,120.839c-0.076,0.003-0.153,0.004-0.228,0.004c-5.742,0-11.633-7.718-13.132-17.204    c-1.048-6.636,0.488-21.007,1.497-28.983c0.067-0.524,0.129-1.006,0.187-1.44c-0.208-0.069-0.416-0.136-0.623-0.203    c-9.277-2.993-20.057-4.78-28.836-4.78c-2.974,0-5.223,0.207-6.895,0.488c6.712,0.722,13.869,2.216,20.303,4.291    c0.207,0.067,0.415,0.135,0.623,0.203c-0.057,0.434-0.12,0.916-0.187,1.44c-1.009,7.976-2.545,22.346-1.497,28.983    c1.498,9.486,7.39,17.204,13.132,17.204c0.076,0,0.152-0.001,0.228-0.004c0.123,2.082,0.242,4.801,0.242,7.481    c0,3.017-0.166,6.153-0.315,8.359c-3.007,0.243-5.966,1.808-8.404,4.462c-4.106,4.469-6.144,11.327-5.589,18.814    c0.677,9.135,2.684,19.464,3.721,24.386c-4.55,1.136-13.89,3.342-22.309,4.543c0.525,0.151,1.118,0.309,1.81,0.474    c0.98,0.233,2.322,0.352,3.988,0.352c9.432,0,25.494-3.759,31.939-5.369c-1.037-4.922-3.043-15.251-3.72-24.386    c-0.554-7.487,1.483-14.344,5.589-18.814c2.438-2.654,5.397-4.219,8.405-4.462c0.149-2.206,0.315-5.342,0.315-8.359    C247.168,125.64,247.048,122.92,246.925,120.839z"/>
		<path style="fill:#E6E6E5;" d="M156.432,150.902c-9.412,0.924-23.339,7.182-23.339,17.676c0,4.954,3.694,8.837,6.953,12.264    c1.389,1.461,3.691,3.881,3.786,4.8c-0.379,0.171-1.394,0.504-3.782,0.739c3.103,0.163,6.135,0.264,8.892,0.264    c7.371,0,9.694-0.723,10.317-1.003c-0.095-0.919-2.397-3.339-3.786-4.8c-3.259-3.426-6.953-7.31-6.953-12.264    c0-10.092,12.88-16.264,22.237-17.544c-1.922-0.432-3.988-0.634-6.294-0.634C161.892,150.4,159.084,150.641,156.432,150.902z"/>
		<path style="fill:#FFFFFF;" d="M217.431,159.954c-0.554-7.487,1.483-14.344,5.589-18.814c2.438-2.654,5.397-4.219,8.404-4.462    c0.149-2.206,0.315-5.342,0.315-8.359c0-2.679-0.12-5.399-0.242-7.481c-0.076,0.003-0.153,0.004-0.228,0.004    c-5.742,0-11.634-7.718-13.132-17.204c-1.048-6.636,0.488-21.007,1.497-28.983c0.067-0.524,0.129-1.006,0.187-1.44    c-0.207-0.069-0.415-0.136-0.623-0.203c-6.435-2.076-13.591-3.57-20.303-4.291c-2.26,0.379-3.458,0.894-3.91,1.219    c0.186,2.05,1.924,4.511,3.759,7.108c2.255,3.191,4.81,6.809,5.223,10.944c0.292,2.912-1.017,6.069-3.785,9.128    c-4.544,5.022-13.857,10.426-23.566,10.426c-2.628,0-5.401-0.341-8.136-0.966c-2.356,0.609-4.81,0.966-7.292,0.966    c-12.168,0-27.387-7.286-28.035-16.334c-0.479-6.693,3.837-11.947,6.989-15.784c1.12-1.363,2.798-3.405,2.962-4.21    c-0.207-0.724-1.07-1.306-2.465-1.715c-7.758,0.932-19.094,2.725-24.655,3.627c3.583,14.345,3.383,34.759-2.533,43.517    c-2.548,3.771-5.611,4.758-7.733,4.92c-3.719,0.289-6.309-1.765-8.53-3.81c-2.358,2.856-5.004,3.664-6.897,3.81    c-4.123,0.321-6.861-2.239-9.244-4.474c-0.123-0.116-0.245-0.23-0.367-0.343c-1.911,2.326-3.201,5.657-3.201,9.92    c0,4.441,1.128,9.084,3.288,12.394c2.55-2.2,5.199-4.401,8.42-4.401c3.525,0,6.41,0.994,8.677,3c2.051-1.645,4.224-3,6.751-3    c8.467,0,13.246,5.715,14.611,17.473c1.121,9.649-2.061,25.271-3.625,32.108c5.068,0.581,15.083,1.643,24.452,2.135    c2.388-0.235,3.403-0.569,3.782-0.739c-0.095-0.919-2.397-3.339-3.786-4.8c-3.259-3.426-6.953-7.31-6.953-12.264    c0-10.494,13.927-16.751,23.339-17.676c2.652-0.261,5.46-0.502,8.031-0.502c2.306,0,4.372,0.202,6.294,0.634    c0.373-0.051,0.742-0.096,1.102-0.132c2.652-0.261,5.46-0.502,8.031-0.502c7.087,0,11.916,1.867,17.226,6.66    c8.619,7.782,4.733,15.522,1.895,21.174c-0.591,1.176-1.148,2.287-1.623,3.397l-0.421,0.98c-0.748,1.732-1.771,4.104-1.611,4.728    c0.039,0.059,0.506,0.683,3.484,1.545c8.419-1.2,17.759-3.406,22.309-4.543C220.115,179.418,218.109,169.089,217.431,159.954z"/>
		<path style="fill:#272361;" d="M252.698,116.637c-0.09-0.999-0.668-1.889-1.545-2.377c-0.876-0.488-1.938-0.509-2.833-0.058    c-1.076,0.542-1.514,0.584-1.623,0.584c-1.346,0-5.896-4.158-7.149-12.092c-0.68-4.306-0.125-14.248,1.523-27.276    c0.296-2.332,0.509-3.807,0.511-3.82c0.204-1.422-0.617-2.793-1.969-3.281c-1.023-0.369-2.076-0.729-3.128-1.069    c-9.846-3.176-21.32-5.072-30.697-5.072c-4.483,0-8.142,0.419-10.876,1.246c-5.223,1.58-6.002,4.541-6.002,6.165    c0,4.04,2.484,7.555,4.885,10.955c1.912,2.706,3.889,5.504,4.144,8.052c0.111,1.114-0.73,2.782-2.25,4.462    c-3.699,4.088-11.641,8.433-19.074,8.433c-10.946,0-21.705-6.681-21.993-10.709c-0.307-4.283,2.845-8.121,5.627-11.507    c2.633-3.205,4.907-5.973,4.232-9.205c-1.013-4.844-5.93-7.3-14.612-7.3c-1.464,0-3.08,0.065-4.804,0.194    c-8.937,0.67-31.832,4.476-33.347,4.729c0.021-0.003,0.037-0.005,0.042-0.006c1.463-0.19,2.84,0.69,3.283,2.091    c0.338,1.07,0.649,2.195,0.938,3.354c6.909-1.12,22.74-3.619,29.536-4.128c1.573-0.118,3.037-0.178,4.351-0.178    c5.013,0,8.231,0.893,8.661,2.394c-0.163,0.804-1.842,2.847-2.962,4.21c-3.152,3.837-7.468,9.091-6.989,15.784    c0.647,9.048,15.866,16.334,28.035,16.334c9.709,0,19.022-5.404,23.566-10.426c2.768-3.059,4.077-6.216,3.785-9.128    c-0.413-4.135-2.968-7.753-5.223-10.944c-1.835-2.597-3.573-5.058-3.759-7.108c0.787-0.564,3.812-1.707,10.805-1.707    c8.779,0,19.56,1.787,28.836,4.78c0.207,0.067,0.415,0.135,0.623,0.203c-0.058,0.434-0.12,0.916-0.187,1.44    c-1.009,7.976-2.545,22.346-1.497,28.983c1.499,9.486,7.391,17.204,13.132,17.204c0.076,0,0.152-0.001,0.228-0.004    c0.123,2.082,0.243,4.801,0.243,7.481c0,3.017-0.166,6.153-0.315,8.359c-3.007,0.243-5.967,1.808-8.405,4.462    c-4.106,4.469-6.143,11.327-5.589,18.814c0.677,9.135,2.683,19.464,3.72,24.386c-6.445,1.61-22.507,5.369-31.939,5.369    c-1.667,0-3.008-0.119-3.988-0.352c-4.623-1.101-5.248-1.95-5.294-2.019c-0.161-0.624,0.863-2.996,1.611-4.728l0.421-0.98    c0.474-1.11,1.032-2.221,1.623-3.397c2.837-5.651,6.724-13.392-1.895-21.174c-5.31-4.792-10.139-6.66-17.226-6.66    c-2.572,0-5.38,0.242-8.031,0.502c-9.412,0.924-23.339,7.182-23.339,17.676c0,4.954,3.694,8.837,6.953,12.264    c1.389,1.461,3.691,3.881,3.786,4.8c-0.623,0.28-2.947,1.003-10.317,1.003c-11.085,0-26.598-1.626-33.344-2.399    c-0.44,1.923-0.752,3.152-0.805,3.357c-0.386,1.508-1.856,2.467-3.382,2.237c0.023,0.004,0.044,0.012,0.067,0.015    c0.917,0.116,22.614,2.846,37.464,2.846c0.001,0,0,0,0.001,0c10.591,0,13.733-1.35,15.189-3.375    c3.345-4.654-0.877-9.093-4.27-12.659c-2.477-2.604-5.284-5.556-5.284-8.089c0-6.129,10.411-10.914,17.874-11.648    c2.499-0.246,5.129-0.473,7.439-0.473c5.552,0,8.997,1.334,13.168,5.099c4.964,4.482,3.599,7.869,0.541,13.96    c-0.606,1.207-1.232,2.454-1.78,3.735l-0.413,0.96c-1.653,3.831-2.959,6.857-1.471,9.823c1.418,2.826,4.748,4.129,9.312,5.215    c1.46,0.348,3.224,0.516,5.392,0.516c12.742,0,35.35-6.037,36.306-6.293c1.575-0.423,2.531-2.017,2.165-3.605    c-0.033-0.144-3.339-14.572-4.213-26.36c-0.431-5.826,1.03-11.027,4.009-14.269c1.465-1.595,3.186-2.519,4.77-2.535    c0.385,0,0.775,0.053,1.193,0.162c0.86,0.226,1.775,0.061,2.502-0.449c0.728-0.51,1.195-1.313,1.278-2.198    c0.024-0.249,0.573-6.163,0.573-11.898C253.225,122.591,252.72,116.877,252.698,116.637z"/>
		<path style="fill:#E6E6E5;" d="M41.754,194.572c0,5.365,3.068,8.529,5.308,10.84c1.747,1.802,2.735,2.889,2.735,4.282    c0,2.921-4.536,7.345-10.532,9.091c2.246,0.474,4.637,0.747,6.964,0.747c8.325,0,15.63-6.132,15.63-9.839    c0-1.393-0.988-2.48-2.735-4.282c-2.24-2.311-5.308-5.475-5.308-10.84c0-5.673,4.179-12.339,23.047-13.45    c-2.178-0.108-4.285-0.164-6.313-0.164C46.751,180.959,41.754,188.362,41.754,194.572z"/>
		<path style="fill:#E6E6E5;" d="M50.109,46.106c0,3.695-2.145,6.601-4.22,9.412c-2.009,2.721-3.906,5.292-3.719,8.464    c0.356,6.097,6.41,11.135,15.422,12.834c1.135,0.215,2.707,0.318,4.806,0.318c2.124,0,4.684-0.107,7.461-0.284    c-0.068-0.011-0.14-0.022-0.204-0.035c-9.012-1.7-15.066-6.737-15.422-12.834c-0.188-3.172,1.71-5.743,3.718-8.464    c2.075-2.811,4.22-5.717,4.22-9.412c0-4.01-7.892-9.097-16.762-9.097c-1.754,0-3.725,0.296-5.67,0.867    C45.685,39.498,50.109,43.104,50.109,46.106z"/>
		<path style="fill:#E6E6E5;" d="M97.877,110.272c1.031,0.806,1.932,1.647,2.74,2.405c1.994,1.87,3.223,2.958,4.635,2.853    c0.429-0.033,1.733-0.134,3.178-2.271c4.954-7.333,4.817-26.581,1.531-39.236c-2.597,0.326-6.878,0.845-11.727,1.368    C100.834,86.516,101.11,101.92,97.877,110.272z"/>
		<path style="fill:#E6E6E5;" d="M59.358,126.671c0,11.087,5.577,22.561,16.234,23.04c2.351,0.104,4.44-0.532,6.313-1.507    c-6.902-3.526-10.485-12.651-10.485-21.533c0-9.643,4.953-16.005,10.865-18.571c-1.773-0.804-3.847-1.33-6.33-1.281    C67.91,106.985,59.358,113.999,59.358,126.671z"/>
		<path style="fill:#E6E6E5;" d="M113.207,152.835c-1.406-12.114-6.082-12.114-8.594-12.114c-1.072,0-3.002,1.668-4.706,3.14    c-0.289,0.25-0.587,0.506-0.89,0.764c0.92,1.79,1.685,4.401,2.128,8.21c0.954,8.21-1.735,22.036-3.279,28.993    c3.739,0.393,7.64,0.912,11.708,1.569C111.006,177.178,114.239,161.716,113.207,152.835z"/>
		<path style="fill:#FFFFFF;" d="M82.285,108.101c2.672,1.212,4.655,3.062,6.27,4.576c1.994,1.87,3.223,2.958,4.635,2.853    c0.429-0.033,1.733-0.134,3.178-2.271c0.57-0.845,1.071-1.853,1.509-2.986c-2.398-1.871-5.508-3.539-9.858-3.452    C86.094,106.859,84.142,107.294,82.285,108.101z"/>
		<path style="fill:#FFFFFF;" d="M99.017,144.625c-2.006-3.903-4.745-3.904-6.467-3.904c-1.071,0-3.002,1.668-4.705,3.14    c-1.712,1.48-3.667,3.16-5.94,4.343c1.714,0.876,3.629,1.412,5.749,1.507C92.376,149.921,96.043,147.156,99.017,144.625z"/>
		<path style="fill:#FFFFFF;" d="M98.234,75.39c-0.108-0.463-0.219-0.921-0.336-1.368C92.492,74.7,79.791,76.22,69.86,76.851    c1.117,0.19,2.622,0.284,4.601,0.284C80.53,77.135,90.168,76.259,98.234,75.39z"/>
		<path style="fill:#FFFFFF;" d="M76.864,181.123c6.299,0.312,13.209,1.072,20.647,2.275c0.108-0.47,0.228-1,0.355-1.569    c-5.461-0.573-10.567-0.869-15.252-0.869C80.556,180.959,78.649,181.018,76.864,181.123z"/>
		<path style="fill:#FFFFFF;" d="M101.145,152.835c-0.442-3.81-1.208-6.42-2.128-8.21c-2.973,2.531-6.641,5.296-11.363,5.086    c-2.12-0.095-4.035-0.631-5.749-1.507c-1.873,0.975-3.962,1.612-6.313,1.507c-10.657-0.479-16.234-11.953-16.234-23.04    c0-12.672,8.552-19.686,16.598-19.851c2.482-0.049,4.556,0.476,6.33,1.281c1.858-0.806,3.809-1.241,5.733-1.281    c4.351-0.087,7.461,1.58,9.858,3.452c3.234-8.352,2.958-23.755,0.358-34.881c-8.066,0.869-17.704,1.744-23.774,1.744    c-1.978,0-3.484-0.093-4.601-0.284c-2.778,0.177-5.338,0.284-7.461,0.284c-2.099,0-3.67-0.104-4.806-0.318    c-9.012-1.7-15.066-6.737-15.422-12.834c-0.187-3.172,1.71-5.743,3.719-8.464c2.075-2.811,4.22-5.717,4.22-9.412    c0-3.002-4.424-6.608-10.37-8.23c-5.243,1.539-10.298,5.096-10.396,10.377c-0.051,2.742,1.726,4.804,3.607,6.987    c2.18,2.53,4.892,5.678,3.83,9.988c-1.213,4.925-6.96,8.749-15.86,10.607c-0.606,1.24-1.563,3.259-2.557,5.587    c-1.425,3.342-2.951,7.457-3.983,10.737c-1.453,4.627-2.656,9.992-3.278,12.958c6.975,3.98,11.063,12.502,11.063,23.369    c0,10.663-4.058,19.716-10.734,24.285c0.858,3.749,2.747,11.585,4.491,15.97c2.118,5.324,4.869,11.231,6.166,13.962    c9.54,0.968,14.917,3.831,16.418,8.729c2.227,7.266-2.281,11.558-5.574,14.691c-2.646,2.519-4.254,4.212-4.268,6.482    c-0.003,0.579,0.346,1.226,1.036,1.92c1.836,1.845,5.455,3.393,9.562,4.26c5.996-1.746,10.532-6.171,10.532-9.091    c0-1.393-0.988-2.48-2.735-4.282c-2.24-2.311-5.308-5.475-5.308-10.84c0-6.211,4.997-13.613,28.797-13.613    c2.028,0,4.135,0.056,6.313,0.164c1.785-0.105,3.692-0.164,5.75-0.164c4.685,0,9.791,0.296,15.252,0.869    C99.41,174.871,102.099,161.045,101.145,152.835z"/>
		<path style="fill:#272361;" d="M114.794,187.603c0.052-0.206,0.365-1.434,0.805-3.357c1.564-6.838,4.746-22.46,3.625-32.108    c-1.365-11.757-6.144-17.473-14.611-17.473c-3.325,0-6.04,2.345-8.666,4.614c-2.496,2.156-5.078,4.387-7.788,4.387    c0,0-0.001,0-0.002,0c-0.077,0-0.153-0.001-0.23-0.005c-6.787-0.305-10.449-8.981-10.449-16.989    c0-8.819,5.494-13.69,10.664-13.796l0.21-0.002c3.619,0,5.706,1.957,8.121,4.222c2.382,2.235,5.12,4.795,9.243,4.474    c2.121-0.163,5.185-1.149,7.733-4.92c5.916-8.757,6.116-29.172,2.533-43.517c-0.289-1.159-0.6-2.284-0.938-3.354    c-0.443-1.401-1.82-2.281-3.283-2.091c-0.005,0.001-0.02,0.003-0.042,0.006c-1.152,0.151-26.077,3.386-37.258,3.386    c-2.109,0-3.167-0.116-3.682-0.213c-5.999-1.131-10.316-4.106-10.498-7.238c-0.058-0.985,1.265-2.778,2.545-4.512    c2.408-3.262,5.404-7.321,5.404-13.009c0-8.673-12.048-15.154-22.82-15.154c-10.486,0-21.926,6.572-22.122,17.189    c-0.093,5.054,2.773,8.38,5.075,11.052c1.983,2.301,2.822,3.43,2.537,4.585c-0.533,2.166-4.621,4.98-12.549,6.383    c-0.93,0.165-1.73,0.754-2.163,1.593c-0.067,0.13-1.658,3.221-3.394,7.29c-1.497,3.512-3.103,7.84-4.189,11.298    c-2.238,7.126-3.843,15.56-3.91,15.915c-0.269,1.428,0.513,2.846,1.865,3.379c6.07,2.396,9.551,9.265,9.551,18.848    c0,9.428-3.634,17.133-9.484,20.111c-1.224,0.623-1.875,1.99-1.588,3.333c0.11,0.515,2.731,12.699,5.258,19.051    c2.941,7.396,6.919,15.572,7.087,15.917c0.472,0.969,1.425,1.614,2.499,1.693c10.545,0.779,12.488,3.488,12.834,4.618    c1.079,3.522-0.615,5.347-3.958,8.529c-2.727,2.595-6.12,5.825-6.149,10.836c-0.012,2.22,0.955,4.372,2.798,6.225    c4.667,4.692,13.82,6.793,20.821,6.793c10.742,0,21.687-8.022,21.687-15.896c0-3.915-2.361-6.35-4.444-8.498    c-2.231-2.302-3.599-3.853-3.599-6.624c0-4.661,8.713-7.556,22.739-7.556c8.161,0,18.095,0.975,28.729,2.819    c0.023,0.004,0.046,0.002,0.069,0.005C112.938,190.07,114.407,189.11,114.794,187.603z M82.614,180.959    c-23.801,0-28.797,7.403-28.797,13.613c0,5.365,3.068,8.529,5.308,10.84c1.747,1.802,2.735,2.889,2.735,4.282    c0,3.707-7.305,9.839-15.63,9.839c-6.582,0-13.687-2.153-16.527-5.007c-0.691-0.694-1.039-1.34-1.036-1.92    c0.013-2.27,1.622-3.963,4.268-6.482c3.292-3.133,7.801-7.424,5.574-14.691c-1.501-4.898-6.878-7.761-16.418-8.729    c-1.297-2.731-4.048-8.638-6.166-13.962c-1.745-4.386-3.634-12.221-4.491-15.97c6.676-4.57,10.734-13.622,10.734-24.285    c0-10.867-4.088-19.389-11.063-23.369c0.622-2.966,1.825-8.331,3.278-12.958c1.032-3.281,2.558-7.396,3.983-10.737    c0.993-2.329,1.951-4.347,2.557-5.587c8.9-1.858,14.647-5.682,15.86-10.607c1.062-4.31-1.65-7.458-3.83-9.988    c-1.881-2.183-3.658-4.245-3.607-6.987c0.133-7.24,9.584-11.244,16.065-11.244c8.87,0,16.762,5.087,16.762,9.097    c0,3.695-2.145,6.601-4.22,9.412c-2.009,2.721-3.906,5.292-3.718,8.464c0.356,6.097,6.41,11.135,15.422,12.834    c1.135,0.215,2.707,0.318,4.805,0.318c9.718,0,28.583-2.245,35.5-3.112c3.286,12.655,3.423,31.902-1.531,39.236    c-1.445,2.138-2.749,2.238-3.178,2.271c-1.412,0.105-2.641-0.983-4.635-2.853c-2.686-2.519-6.376-5.981-12.599-5.857    c-8.046,0.165-16.598,7.179-16.598,19.851c0,11.087,5.577,22.561,16.234,23.04c5.204,0.231,9.129-3.151,12.253-5.85    c1.703-1.472,3.634-3.14,4.706-3.14c2.512,0,7.189,0,8.594,12.114c1.032,8.881-2.201,24.343-3.634,30.562    C99.564,181.779,90.506,180.959,82.614,180.959z"/>
	</g>
</g>
</svg>